<!--?xml version="1.0" standalone="no"?-->
              <svg id="sw-js-blob-svg" viewBox="0 0 100 100" xmlns="http://www.w3.org/2000/svg" version="1.1">
                    <defs> 
                        <linearGradient id="sw-gradient" x1="0" x2="1" y1="1" y2="0">
                            <stop id="stop1" stop-color="rgba(248, 117, 55, 1)" offset="0%"></stop>
                            <stop id="stop2" stop-color="rgba(251, 168, 31, 1)" offset="100%"></stop>
                        </linearGradient>
                    </defs>
                <path fill="url(#sw-gradient)" d="M23.6,-32.3C26.5,-25.6,22.2,-14.4,22.7,-5C23.1,4.4,28.5,12,27.3,17.3C26,22.5,18.2,25.5,10.9,26.9C3.5,28.3,-3.3,28.1,-10.4,26.4C-17.5,24.8,-24.8,21.7,-30,15.8C-35.1,9.9,-38.1,1.3,-37,-6.7C-35.8,-14.8,-30.5,-22.4,-23.7,-28.4C-16.8,-34.4,-8.4,-38.8,0.9,-39.9C10.3,-41.1,20.6,-38.9,23.6,-32.3Z" width="100%" height="100%" transform="translate(50 50)" style="transition: all 0.3s ease 0s;" stroke-width="0" stroke="url(#sw-gradient)"></path>
              </svg>